<?xml version="1.0" encoding="UTF-8" standalone="no"?><!-- Generator: Gravit.io --><svg xmlns="http://www.w3.org/2000/svg" xmlns:xlink="http://www.w3.org/1999/xlink" style="isolation:isolate" viewBox="-433.19 10.172 266.19 259.518" width="266.19pt" height="259.518pt"><defs><filter id="PNXYz94C6APBlEy6lzdh72lmp71NwysU" x="-200%" y="-200%" width="400%" height="400%" filterUnits="objectBoundingBox" color-interpolation-filters="sRGB"><feOffset xmlns="http://www.w3.org/2000/svg" in="SourceGraphic" dx="-5" dy="-5"/><feGaussianBlur xmlns="http://www.w3.org/2000/svg" stdDeviation="8.587218125678056" result="pf_100_offsetBlur"/><feComposite xmlns="http://www.w3.org/2000/svg" in="SourceGraphic" in2="pf_100_offsetBlur" result="pf_100_inverse" operator="out"/><feFlood xmlns="http://www.w3.org/2000/svg" flood-color="#000000" flood-opacity="0.6" result="pf_100_color"/><feComposite xmlns="http://www.w3.org/2000/svg" in="pf_100_color" in2="pf_100_inverse" operator="in" result="pf_100_shadow"/><feComposite xmlns="http://www.w3.org/2000/svg" in="pf_100_shadow" in2="SourceGraphic" operator="over"/></filter></defs><g filter="url(#PNXYz94C6APBlEy6lzdh72lmp71NwysU)"><linearGradient id="_lgradient_5" x1="0.31366784961089533" y1="0.9608344541081982" x2="0.6957063413387559" y2="0.1457635089273549" gradientTransform="matrix(266.19,0,0,259.518,-433.19,10.172)" gradientUnits="userSpaceOnUse"><stop offset="1.6666666666666667%" stop-opacity="1" style="stop-color:rgb(160,127,97)"/><stop offset="100%" stop-opacity="1" style="stop-color:rgb(57,46,43)"/></linearGradient><path d=" M -240.865 269.69 L -300.098 269.688 L -359.331 269.686 L -396.26 223.375 L -433.19 177.064 L -420.008 119.316 L -406.826 61.569 L -353.459 35.87 L -300.091 10.172 L -246.724 35.873 L -193.358 61.575 L -180.179 119.323 L -167 177.072 L -203.932 223.381 L -240.865 269.69 Z  M -262.372 225.021 L -300.119 225.021 L -337.866 225.021 L -361.319 195.538 L -384.883 166.055 L -376.507 129.202 L -368.019 92.46 L -334.07 76.155 L -300.119 59.739 L -266.058 76.155 L -232.108 92.46 L -223.732 129.314 L -215.357 166.055 L -238.809 195.538 L -262.372 225.021 Z " fill-rule="evenodd" fill="url(#_lgradient_5)"/></g></svg>