<?xml version="1.0" encoding="UTF-8" standalone="no"?><!-- Generator: Gravit.io --><svg xmlns="http://www.w3.org/2000/svg" xmlns:xlink="http://www.w3.org/1999/xlink" style="isolation:isolate" viewBox="466.81 10.172 266.19 259.518" width="266.19pt" height="259.518pt"><defs><filter id="ts9G3dgeo6JglFH0HOCCoyF33PWTrtMS" x="-200%" y="-200%" width="400%" height="400%" filterUnits="objectBoundingBox" color-interpolation-filters="sRGB"><feOffset xmlns="http://www.w3.org/2000/svg" in="SourceGraphic" dx="-5" dy="-5"/><feGaussianBlur xmlns="http://www.w3.org/2000/svg" stdDeviation="8.587218125678056" result="pf_100_offsetBlur"/><feComposite xmlns="http://www.w3.org/2000/svg" in="SourceGraphic" in2="pf_100_offsetBlur" result="pf_100_inverse" operator="out"/><feFlood xmlns="http://www.w3.org/2000/svg" flood-color="#000000" flood-opacity="0.6" result="pf_100_color"/><feComposite xmlns="http://www.w3.org/2000/svg" in="pf_100_color" in2="pf_100_inverse" operator="in" result="pf_100_shadow"/><feComposite xmlns="http://www.w3.org/2000/svg" in="pf_100_shadow" in2="SourceGraphic" operator="over"/></filter></defs><g filter="url(#ts9G3dgeo6JglFH0HOCCoyF33PWTrtMS)"><linearGradient id="_lgradient_2" x1="0.6901349466677212" y1="0.15237616383116598" x2="0.29185981904142416" y2="0.969406414168694" gradientTransform="matrix(266.19,0,0,259.518,466.81,10.172)" gradientUnits="userSpaceOnUse"><stop offset="1.6666666666666667%" stop-opacity="1" style="stop-color:rgb(171,182,202)"/><stop offset="100%" stop-opacity="1" style="stop-color:rgb(239,249,254)"/></linearGradient><path d=" M 659.135 269.69 L 599.902 269.688 L 540.669 269.686 L 503.74 223.375 L 466.81 177.064 L 479.992 119.316 L 493.174 61.569 L 546.541 35.87 L 599.909 10.172 L 653.276 35.873 L 706.642 61.575 L 719.821 119.323 L 733 177.072 L 696.068 223.381 L 659.135 269.69 Z  M 637.628 225.021 L 599.881 225.021 L 562.134 225.021 L 538.681 195.538 L 515.117 166.055 L 523.493 129.202 L 531.981 92.46 L 565.93 76.155 L 599.881 59.739 L 633.942 76.155 L 667.892 92.46 L 676.268 129.314 L 684.643 166.055 L 661.191 195.538 L 637.628 225.021 Z " fill-rule="evenodd" fill="url(#_lgradient_2)"/></g></svg>