<?xml version="1.0" encoding="UTF-8" standalone="no"?><!-- Generator: Gravit.io --><svg xmlns="http://www.w3.org/2000/svg" xmlns:xlink="http://www.w3.org/1999/xlink" style="isolation:isolate" viewBox="-733.19 10.172 266.19 259.518" width="266.19pt" height="259.518pt"><defs><filter id="bqRprPfBxz9ilGxKtXDJUIKEMdHlx4fl" x="-200%" y="-200%" width="400%" height="400%" filterUnits="objectBoundingBox" color-interpolation-filters="sRGB"><feOffset xmlns="http://www.w3.org/2000/svg" in="SourceGraphic" dx="-5" dy="-5"/><feGaussianBlur xmlns="http://www.w3.org/2000/svg" stdDeviation="8.587218125678056" result="pf_100_offsetBlur"/><feComposite xmlns="http://www.w3.org/2000/svg" in="SourceGraphic" in2="pf_100_offsetBlur" result="pf_100_inverse" operator="out"/><feFlood xmlns="http://www.w3.org/2000/svg" flood-color="#000000" flood-opacity="0.6" result="pf_100_color"/><feComposite xmlns="http://www.w3.org/2000/svg" in="pf_100_color" in2="pf_100_inverse" operator="in" result="pf_100_shadow"/><feComposite xmlns="http://www.w3.org/2000/svg" in="pf_100_shadow" in2="SourceGraphic" operator="over"/></filter></defs><g filter="url(#bqRprPfBxz9ilGxKtXDJUIKEMdHlx4fl)"><linearGradient id="_lgradient_6" x1="0.3062393233828484" y1="0.9609215343373844" x2="0.6831839685543388" y2="0.14062577540538157" gradientTransform="matrix(266.19,0,0,259.518,-733.19,10.172)" gradientUnits="userSpaceOnUse"><stop offset="1.6666666666666667%" stop-opacity="1" style="stop-color:rgb(104,187,232)"/><stop offset="100%" stop-opacity="1" style="stop-color:rgb(13,85,159)"/></linearGradient><path d=" M -540.865 269.69 L -600.098 269.688 L -659.331 269.686 L -696.26 223.375 L -733.19 177.064 L -720.008 119.316 L -706.826 61.569 L -653.459 35.87 L -600.091 10.172 L -546.724 35.873 L -493.358 61.575 L -480.179 119.323 L -467 177.072 L -503.932 223.381 L -540.865 269.69 Z  M -562.372 225.021 L -600.119 225.021 L -637.866 225.021 L -661.319 195.538 L -684.883 166.055 L -676.507 129.202 L -668.019 92.46 L -634.07 76.155 L -600.119 59.739 L -566.058 76.155 L -532.108 92.46 L -523.732 129.314 L -515.357 166.055 L -538.809 195.538 L -562.372 225.021 Z " fill-rule="evenodd" fill="url(#_lgradient_6)"/></g></svg>