<?xml version="1.0" encoding="UTF-8" standalone="no"?><!-- Generator: Gravit.io --><svg xmlns="http://www.w3.org/2000/svg" xmlns:xlink="http://www.w3.org/1999/xlink" style="isolation:isolate" viewBox="-1033.19 10.172 266.19 259.518" width="266.19pt" height="259.518pt"><defs><filter id="3SHfyiNzYAXt5KFVF62Wm8ebVybDSUqY" x="-200%" y="-200%" width="400%" height="400%" filterUnits="objectBoundingBox" color-interpolation-filters="sRGB"><feOffset xmlns="http://www.w3.org/2000/svg" in="SourceGraphic" dx="-5" dy="-5"/><feGaussianBlur xmlns="http://www.w3.org/2000/svg" stdDeviation="8.587218125678056" result="pf_100_offsetBlur"/><feComposite xmlns="http://www.w3.org/2000/svg" in="SourceGraphic" in2="pf_100_offsetBlur" result="pf_100_inverse" operator="out"/><feFlood xmlns="http://www.w3.org/2000/svg" flood-color="#000000" flood-opacity="0.6" result="pf_100_color"/><feComposite xmlns="http://www.w3.org/2000/svg" in="pf_100_color" in2="pf_100_inverse" operator="in" result="pf_100_shadow"/><feComposite xmlns="http://www.w3.org/2000/svg" in="pf_100_shadow" in2="SourceGraphic" operator="over"/></filter></defs><g filter="url(#3SHfyiNzYAXt5KFVF62Wm8ebVybDSUqY)"><linearGradient id="_lgradient_7" x1="0.30026948957777333" y1="0.9610402801044567" x2="0.6938849052973873" y2="0.14763177566261831" gradientTransform="matrix(266.19,0,0,259.518,-1033.19,10.172)" gradientUnits="userSpaceOnUse"><stop offset="1.6666666666666667%" stop-opacity="1" style="stop-color:rgb(218,37,68)"/><stop offset="100%" stop-opacity="1" style="stop-color:rgb(101,34,47)"/></linearGradient><path d=" M -840.865 269.69 L -900.098 269.688 L -959.331 269.686 L -996.26 223.375 L -1033.19 177.064 L -1020.008 119.316 L -1006.826 61.569 L -953.459 35.87 L -900.091 10.172 L -846.724 35.873 L -793.358 61.575 L -780.179 119.323 L -767 177.072 L -803.932 223.381 L -840.865 269.69 Z  M -862.372 225.021 L -900.119 225.021 L -937.866 225.021 L -961.319 195.538 L -984.883 166.055 L -976.507 129.202 L -968.019 92.46 L -934.07 76.155 L -900.119 59.739 L -866.058 76.155 L -832.108 92.46 L -823.732 129.314 L -815.357 166.055 L -838.809 195.538 L -862.372 225.021 Z " fill-rule="evenodd" fill="url(#_lgradient_7)"/></g></svg>