<?xml version="1.0" encoding="UTF-8" standalone="no"?><!-- Generator: Gravit.io --><svg xmlns="http://www.w3.org/2000/svg" xmlns:xlink="http://www.w3.org/1999/xlink" style="isolation:isolate" viewBox="166.81 10.172 266.19 259.518" width="266.19pt" height="259.518pt"><defs><filter id="I2QtmRPLueaTP0r3zESKpvEtL1sciUDq" x="-200%" y="-200%" width="400%" height="400%" filterUnits="objectBoundingBox" color-interpolation-filters="sRGB"><feOffset xmlns="http://www.w3.org/2000/svg" in="SourceGraphic" dx="-5" dy="-5"/><feGaussianBlur xmlns="http://www.w3.org/2000/svg" stdDeviation="8.587218125678056" result="pf_100_offsetBlur"/><feComposite xmlns="http://www.w3.org/2000/svg" in="SourceGraphic" in2="pf_100_offsetBlur" result="pf_100_inverse" operator="out"/><feFlood xmlns="http://www.w3.org/2000/svg" flood-color="#000000" flood-opacity="0.6" result="pf_100_color"/><feComposite xmlns="http://www.w3.org/2000/svg" in="pf_100_color" in2="pf_100_inverse" operator="in" result="pf_100_shadow"/><feComposite xmlns="http://www.w3.org/2000/svg" in="pf_100_shadow" in2="SourceGraphic" operator="over"/></filter></defs><g filter="url(#I2QtmRPLueaTP0r3zESKpvEtL1sciUDq)"><linearGradient id="_lgradient_3" x1="0.2910002324350427" y1="0.9831705328944043" x2="0.6806794939974606" y2="0.15732340935179445" gradientTransform="matrix(266.19,0,0,259.518,166.81,10.172)" gradientUnits="userSpaceOnUse"><stop offset="1.6666666666666667%" stop-opacity="1" style="stop-color:rgb(20,52,65)"/><stop offset="100%" stop-opacity="1" style="stop-color:rgb(13,17,16)"/></linearGradient><path d=" M 359.135 269.69 L 299.902 269.688 L 240.669 269.686 L 203.74 223.375 L 166.81 177.064 L 179.992 119.316 L 193.174 61.569 L 246.541 35.87 L 299.909 10.172 L 353.276 35.873 L 406.642 61.575 L 419.821 119.323 L 433 177.072 L 396.068 223.381 L 359.135 269.69 Z  M 337.628 225.021 L 299.881 225.021 L 262.134 225.021 L 238.681 195.538 L 215.117 166.055 L 223.493 129.202 L 231.981 92.46 L 265.93 76.155 L 299.881 59.739 L 333.942 76.155 L 367.892 92.46 L 376.268 129.314 L 384.643 166.055 L 361.191 195.538 L 337.628 225.021 Z " fill-rule="evenodd" fill="url(#_lgradient_3)"/></g></svg>