<?xml version="1.0" encoding="UTF-8" standalone="no"?><!-- Generator: Gravit.io --><svg xmlns="http://www.w3.org/2000/svg" xmlns:xlink="http://www.w3.org/1999/xlink" style="isolation:isolate" viewBox="-133.19 10.172 266.19 259.518" width="266.19pt" height="259.518pt"><defs><filter id="f1i0psxLuRiBxFfm1frx1bEqPomMMHeh" x="-200%" y="-200%" width="400%" height="400%" filterUnits="objectBoundingBox" color-interpolation-filters="sRGB"><feOffset xmlns="http://www.w3.org/2000/svg" in="SourceGraphic" dx="-5" dy="-5"/><feGaussianBlur xmlns="http://www.w3.org/2000/svg" stdDeviation="8.587218125678056" result="pf_100_offsetBlur"/><feComposite xmlns="http://www.w3.org/2000/svg" in="SourceGraphic" in2="pf_100_offsetBlur" result="pf_100_inverse" operator="out"/><feFlood xmlns="http://www.w3.org/2000/svg" flood-color="#000000" flood-opacity="0.6" result="pf_100_color"/><feComposite xmlns="http://www.w3.org/2000/svg" in="pf_100_color" in2="pf_100_inverse" operator="in" result="pf_100_shadow"/><feComposite xmlns="http://www.w3.org/2000/svg" in="pf_100_shadow" in2="SourceGraphic" operator="over"/></filter></defs><g filter="url(#f1i0psxLuRiBxFfm1frx1bEqPomMMHeh)"><linearGradient id="_lgradient_4" x1="0.3061544259402422" y1="0.9726179923939564" x2="0.6881929176681048" y2="0.16514677630570884" gradientTransform="matrix(266.19,0,0,259.518,-133.19,10.172)" gradientUnits="userSpaceOnUse"><stop offset="1.6666666666666667%" stop-opacity="1" style="stop-color:rgb(243,219,39)"/><stop offset="100%" stop-opacity="1" style="stop-color:rgb(91,81,36)"/></linearGradient><path d=" M 59.135 269.69 L -0.098 269.688 L -59.331 269.686 L -96.26 223.375 L -133.19 177.064 L -120.008 119.316 L -106.826 61.569 L -53.459 35.87 L -0.091 10.172 L 53.276 35.873 L 106.642 61.575 L 119.821 119.323 L 133 177.072 L 96.068 223.381 L 59.135 269.69 Z  M 37.628 225.021 L -0.119 225.021 L -37.866 225.021 L -61.319 195.538 L -84.883 166.055 L -76.507 129.202 L -68.019 92.46 L -34.07 76.155 L -0.119 59.739 L 33.942 76.155 L 67.892 92.46 L 76.268 129.314 L 84.643 166.055 L 61.191 195.538 L 37.628 225.021 Z " fill-rule="evenodd" fill="url(#_lgradient_4)"/></g></svg>